<svg width="246" height="246" viewBox="0 0 246 246" fill="none" xmlns="http://www.w3.org/2000/svg">
<g clip-path="url(#clip0)">
<path d="M244.062 180.838L150.227 55.725C148.81 53.836 146.588 52.725 144.227 52.725C141.866 52.725 139.643 53.836 138.227 55.725L99.3231 107.598L83.8761 87.002C82.4601 85.113 80.2371 84.002 77.8761 84.002C75.5151 84.002 73.2931 85.113 71.8761 87.002L1.50007 180.838C-0.203927 183.11 -0.477927 186.152 0.792073 188.693C2.06207 191.233 4.65907 192.838 7.50007 192.838H238.062C240.903 192.838 243.5 191.233 244.77 188.693C246.041 186.151 245.767 183.11 244.062 180.838ZM22.5001 177.838L77.8761 104.002L93.3221 124.598C94.7381 126.487 96.9611 127.598 99.3221 127.598C101.683 127.598 103.905 126.487 105.322 124.598L144.226 72.725L223.062 177.838H22.5001Z" fill="white"/>
</g>
<defs>
<clipPath id="clip0">
<rect width="245.562" height="245.562" fill="white"/>
</clipPath>
</defs>
</svg>
