<svg width="76" height="76" viewBox="0 0 76 76" fill="none" xmlns="http://www.w3.org/2000/svg">
<g clip-path="url(#clip0)">
<path d="M73.7736 20.1857H71.3977C71.3977 19.6721 71.3694 19.1564 71.3114 18.6405C70.6652 12.9156 66.1811 8.074 60.5128 7.0498C56.0191 6.23729 51.4776 7.70462 48.364 10.9734L41.3979 18.2878C37.2821 16.878 32.4 18.0662 29.183 21.5158L2.17456 50.479C1.46273 51.2423 1.37671 52.3973 1.96735 53.2578C2.5559 54.115 3.66344 54.4542 4.63498 54.063L11.1026 51.4579L0.448099 65.6041C-0.192066 66.4541 -0.14135 67.6383 0.56928 68.4303C1.27467 69.2168 2.44534 69.4048 3.36572 68.8568L22.6133 57.3973C24.3431 56.3594 26.3237 55.8108 28.3411 55.8108H32.1709L36.0086 63.4862C36.5587 64.5863 37.8964 65.032 38.9958 64.482C40.0957 63.9321 40.5415 62.5946 39.9916 61.4947L37.1497 55.8107H38C39.009 55.8107 40.0097 55.7582 41.0001 55.6567L44.9148 63.4861C45.4649 64.5861 46.8026 65.0318 47.9022 64.4819C49.0021 63.9319 49.4479 62.5944 48.8979 61.4945L45.5592 54.817C57.6468 51.5686 66.8995 40.5004 66.9453 26.9649C66.9496 25.6605 67.9277 24.6386 69.172 24.6386H73.7736C75.0032 24.6386 76.0002 23.6416 76.0002 22.412C76 21.1824 75.0032 20.1857 73.7736 20.1857ZM32.4396 24.5531C36.6299 20.0594 43.6166 22.2283 44.2847 27.9859C44.6361 31.013 42.9023 33.8479 40.1518 34.956L12.2639 46.1892L32.4396 24.5531ZM66.9366 20.5788C64.3584 21.5139 62.5018 24.0164 62.4919 26.9503C62.4466 40.4086 51.4595 51.3576 38 51.3576H28.341C25.5167 51.3576 22.7438 52.1257 20.3287 53.5748L10.8184 59.237L19.1054 48.2342L41.8156 39.0865C46.4137 37.2342 49.2928 32.5083 48.7082 27.4724C48.4048 24.8586 47.183 22.4601 45.2848 20.6637L51.5886 14.0445C53.6967 11.8309 56.6603 10.879 59.7208 11.4318C63.4445 12.1048 66.458 15.3465 66.8862 19.1398C66.9405 19.622 66.9572 20.1026 66.9366 20.5788Z" fill="white"/>
</g>
<defs>
<clipPath id="clip0">
<rect width="76" height="76" fill="white"/>
</clipPath>
</defs>
</svg>
