<svg width="682" height="84" viewBox="0 0 682 84" fill="none" xmlns="http://www.w3.org/2000/svg">
<path d="M95.496 42.6C95.4533 39.272 96.0507 36.2 97.288 33.384C98.5253 30.5253 100.232 28.072 102.408 26.024C104.627 23.9333 107.229 22.312 110.216 21.16C113.203 19.9653 116.403 19.3893 119.816 19.432C123.699 19.432 127.197 20.1147 130.312 21.48C133.427 22.8453 136.072 24.808 138.248 27.368L131.592 33.512C128.605 30.0133 124.851 28.264 120.328 28.264C118.237 28.264 116.317 28.6267 114.568 29.352C112.819 30.0347 111.304 31.016 110.024 32.296C108.744 33.576 107.741 35.0907 107.016 36.84C106.333 38.5893 105.992 40.5093 105.992 42.6C105.992 44.6907 106.333 46.6107 107.016 48.36C107.741 50.1093 108.744 51.624 110.024 52.904C111.304 54.184 112.819 55.1867 114.568 55.912C116.317 56.5947 118.237 56.936 120.328 56.936C124.808 56.936 128.563 55.1653 131.592 51.624L138.248 57.768C136.072 60.3707 133.405 62.3547 130.248 63.72C127.133 65.0853 123.635 65.768 119.752 65.768C116.339 65.8107 113.139 65.256 110.152 64.104C107.208 62.952 104.627 61.3307 102.408 59.24C100.232 57.1493 98.5253 54.696 97.288 51.88C96.0507 49.0213 95.4533 45.928 95.496 42.6ZM173.879 55.4H153.079L149.111 65H138.486L158.455 20.2H168.695L188.727 65H177.847L173.879 55.4ZM170.615 47.528L163.639 30.632H163.383L156.407 47.528H170.615ZM234.463 20.2V65H225.951L203.871 38.12H203.615V65H193.375V20.2H201.951L223.967 47.08H224.222V20.2H234.463ZM274.566 55.4H253.766L249.798 65H239.174L259.142 20.2H269.382L289.414 65H278.534L274.566 55.4ZM271.302 47.528L264.326 30.632H264.07L257.094 47.528H271.302ZM322.606 65L313.966 52.52H304.43V65H294.062V20.2H313.454C316.441 20.2 319.129 20.584 321.518 21.352C323.907 22.12 325.934 23.208 327.598 24.616C329.305 26.024 330.606 27.7307 331.502 29.736C332.441 31.7413 332.91 33.9813 332.91 36.456C332.91 39.784 332.099 42.664 330.478 45.096C328.899 47.4853 326.638 49.32 323.694 50.6L333.742 65H322.606ZM312.878 28.648H304.43V44.264H312.878C315.993 44.264 318.361 43.5813 319.982 42.216C321.603 40.8507 322.414 38.9307 322.414 36.456C322.414 33.896 321.603 31.9547 319.982 30.632C318.361 29.3093 315.993 28.648 312.878 28.648ZM362.004 49.128V65H351.635V49L334.291 20.2H345.3L357.268 40.104L369.236 20.2H379.412L362.004 49.128ZM423.686 20.2V65H417.286V45.032H391.558V65H385.158V20.2H391.558V39.464H417.286V20.2H423.686ZM433.447 42.6C433.404 39.4 433.98 36.392 435.175 33.576C436.412 30.76 438.098 28.3067 440.231 26.216C442.407 24.1253 444.946 22.504 447.847 21.352C450.791 20.2 453.948 19.6453 457.319 19.688C460.647 19.6453 463.762 20.2 466.663 21.352C469.607 22.504 472.146 24.1253 474.279 26.216C476.455 28.264 478.14 30.696 479.335 33.512C480.53 36.328 481.106 39.3573 481.063 42.6C481.106 45.8427 480.53 48.872 479.335 51.688C478.14 54.504 476.455 56.9573 474.279 59.048C472.146 61.096 469.607 62.696 466.663 63.848C463.762 65 460.647 65.5547 457.319 65.512C453.948 65.5973 450.791 65.064 447.847 63.912C444.946 62.7173 442.407 61.0747 440.231 58.984C438.098 56.8933 436.412 54.44 435.175 51.624C433.98 48.808 433.404 45.8 433.447 42.6ZM474.663 42.6C474.663 40.168 474.215 37.9067 473.319 35.816C472.466 33.6827 471.25 31.848 469.671 30.312C468.135 28.776 466.3 27.5813 464.167 26.728C462.076 25.832 459.794 25.384 457.319 25.384C454.844 25.384 452.54 25.832 450.407 26.728C448.274 27.5813 446.418 28.776 444.839 30.312C443.303 31.848 442.087 33.6827 441.191 35.816C440.295 37.9067 439.847 40.168 439.847 42.6C439.847 45.032 440.295 47.3147 441.191 49.448C442.087 51.5387 443.303 53.352 444.839 54.888C446.418 56.424 448.274 57.64 450.407 58.536C452.54 59.3893 454.844 59.816 457.319 59.816C459.794 59.816 462.076 59.3893 464.167 58.536C466.3 57.64 468.135 56.424 469.671 54.888C471.25 53.352 472.466 51.5387 473.319 49.448C474.215 47.3147 474.663 45.032 474.663 42.6ZM486.749 59.88L489.117 54.888C490.824 56.424 493 57.6827 495.645 58.664C498.333 59.6027 501.085 60.072 503.901 60.072C507.656 60.072 510.429 59.4533 512.221 58.216C514.056 56.936 514.973 55.2507 514.973 53.16C514.973 51.6667 514.461 50.4293 513.437 49.448C512.925 48.936 512.37 48.5093 511.773 48.168C511.218 47.8267 510.536 47.5067 509.725 47.208C508.957 46.9093 508.061 46.632 507.037 46.376C506.013 46.12 504.84 45.8213 503.517 45.48C501.81 45.0533 500.274 44.648 498.909 44.264C497.586 43.88 496.392 43.4747 495.325 43.048C493.277 42.2373 491.506 41 490.013 39.336C488.562 37.6293 487.837 35.3467 487.837 32.488C487.837 30.696 488.178 29.032 488.861 27.496C489.586 25.9173 490.653 24.552 492.061 23.4C493.512 22.248 495.304 21.352 497.437 20.712C499.613 20.0293 502.13 19.688 504.989 19.688C507.677 19.688 510.28 20.0293 512.797 20.712C515.357 21.3947 517.554 22.376 519.389 23.656L517.277 28.776C515.357 27.5813 513.33 26.6853 511.197 26.088C509.106 25.448 507.037 25.128 504.989 25.128C501.362 25.128 498.632 25.7893 496.797 27.112C495.005 28.4347 494.109 30.1413 494.109 32.232C494.109 33.8107 494.621 35.0693 495.645 36.008C496.669 36.9467 497.928 37.6933 499.421 38.248C500.957 38.76 503.026 39.3147 505.629 39.912C507.336 40.3387 508.85 40.744 510.173 41.128C511.538 41.512 512.733 41.9173 513.757 42.344C514.781 42.728 515.741 43.24 516.637 43.88C517.576 44.4773 518.365 45.2027 519.005 46.056C519.688 46.9093 520.221 47.8907 520.605 49C521.032 50.1093 521.245 51.368 521.245 52.776C521.245 54.568 520.882 56.232 520.157 57.768C519.432 59.304 518.344 60.648 516.893 61.8C515.442 62.952 513.629 63.8693 511.453 64.552C509.277 65.192 506.76 65.512 503.901 65.512C500.488 65.512 497.224 65 494.109 63.976C490.952 62.8667 488.498 61.5013 486.749 59.88ZM538.866 25.768H523.506V20.2H560.562V25.768H545.202V65H538.866V25.768ZM567.533 20.2H573.933V65H567.533V20.2ZM625.873 20.2V65H620.625L594.001 31.912H593.745V65H587.345V20.2H592.593L619.217 53.288H619.473V20.2H625.873ZM656.563 41.448H676.467V59.816C674.248 61.6507 671.667 63.0587 668.722 64.04C665.779 65.0213 662.707 65.512 659.507 65.512C656.136 65.5547 652.979 65 650.035 63.848C647.133 62.696 644.595 61.096 642.419 59.048C640.285 56.9573 638.6 54.504 637.363 51.688C636.168 48.872 635.592 45.8427 635.635 42.6C635.592 39.3573 636.168 36.328 637.363 33.512C638.6 30.696 640.285 28.264 642.419 26.216C644.595 24.1253 647.155 22.504 650.099 21.352C653.043 20.2 656.221 19.6453 659.635 19.688C663.261 19.688 666.525 20.264 669.427 21.416C672.328 22.568 674.803 24.296 676.851 26.6L672.883 30.568C669.299 27.112 664.968 25.384 659.891 25.384C657.331 25.384 654.941 25.8107 652.723 26.664C650.547 27.5173 648.669 28.712 647.091 30.248C645.512 31.784 644.275 33.6187 643.379 35.752C642.483 37.8427 642.035 40.1253 642.035 42.6C642.035 45.032 642.483 47.3147 643.379 49.448C644.275 51.5387 645.512 53.352 647.091 54.888C648.712 56.424 650.589 57.64 652.723 58.536C654.899 59.3893 657.267 59.816 659.827 59.816C663.795 59.816 667.293 58.856 670.323 56.936V46.888H656.563V41.448Z" fill="white"/>
<g clip-path="url(#clip0)">
<path d="M81.5391 18.311H78.9131C78.9131 17.7434 78.8819 17.1734 78.8177 16.6033C78.1036 10.2756 73.1474 4.92445 66.8825 3.79243C61.9157 2.89439 56.8962 4.51619 53.4549 8.12902L45.7555 16.2134C41.2064 14.6552 35.8104 15.9685 32.2548 19.7812L2.40336 51.7932C1.6166 52.6368 1.52152 53.9133 2.17434 54.8644C2.82484 55.8119 4.04896 56.1868 5.12277 55.7544L12.2712 52.8751L0.495166 68.5103C-0.212385 69.4499 -0.15633 70.7586 0.629103 71.634C1.40875 72.5033 2.70265 72.7111 3.71991 72.1054L24.9936 59.4396C26.9054 58.2926 29.0945 57.6862 31.3243 57.6862H35.5572L39.7989 66.1696C40.4069 67.3854 41.8853 67.878 43.1005 67.2702C44.3162 66.6623 44.809 65.184 44.2011 63.9684L41.0601 57.6861H41.9999C43.1151 57.6861 44.2211 57.628 45.3158 57.5159L49.6426 66.1694C50.2506 67.3852 51.7291 67.8778 52.9444 67.27C54.1601 66.6621 54.6528 65.1839 54.045 63.9682L50.3548 56.5878C63.7148 52.9974 73.9414 40.7642 73.992 25.8039C73.9968 24.3622 75.0779 23.2327 76.4532 23.2327H81.5391C82.8982 23.2327 84.0001 22.1307 84.0001 20.7717C83.9999 19.4126 82.8982 18.311 81.5391 18.311ZM35.8542 23.1382C40.4856 18.1715 48.2077 20.5686 48.9461 26.9323C49.3346 30.2781 47.4183 33.4114 44.3782 34.6362L13.5547 47.0518L35.8542 23.1382ZM73.9824 18.7456C71.1329 19.7791 69.0808 22.5449 69.0699 25.7877C69.0198 40.6627 56.8762 52.7643 41.9999 52.7643H31.3242C28.2026 52.7643 25.1378 53.6132 22.4684 55.2148L11.957 61.473L21.1163 49.312L46.2171 39.2014C51.2993 37.1542 54.4814 31.9308 53.8353 26.3648C53.5 23.4759 52.1496 20.8249 50.0515 18.8393L57.0189 11.5234C59.3489 9.07683 62.6244 8.02468 66.0071 8.63566C70.1227 9.37959 73.4535 12.9625 73.9267 17.1551C73.9867 17.688 74.0053 18.2193 73.9824 18.7456Z" fill="white"/>
</g>
<defs>
<clipPath id="clip0">
<rect width="84" height="84" fill="white"/>
</clipPath>
</defs>
</svg>
